<svg xmlns="http://www.w3.org/2000/svg" width="77" height="77" viewBox="0 0 77 77">
  <g id="Group_942" data-name="Group 942" transform="translate(-827 -4925)">
    <rect id="Rectangle_1164" data-name="Rectangle 1164" width="77" height="77" transform="translate(827 4925)" fill="none"/>
    <g id="Trading_Card" data-name="Trading Card" transform="translate(835 4933)">
      <path id="Path_712" data-name="Path 712" d="M247.123,143.238a4.3,4.3,0,0,0,5.869-1.592l19.4-33.818a4.3,4.3,0,0,0-1.591-5.873L251.731,91.021a4.3,4.3,0,0,0-5.872,1.591l-2.548,4.44v29.076a5.659,5.659,0,0,1-5.652,5.654H227.366a4.331,4.331,0,0,0,.688.522Z" transform="translate(-211.373 -82.841)" fill="#8ebdeb"/>
      <path id="Path_713" data-name="Path 713" d="M94.852,70.711a4.306,4.306,0,0,0,4.3,4.3h21.984a4.306,4.306,0,0,0,4.3-4.3V31.724a4.306,4.306,0,0,0-4.3-4.3H99.154a4.307,4.307,0,0,0-4.3,4.3Z" transform="translate(-94.852 -27.423)" fill="#016dd9"/>
    </g>
  </g>
</svg>
