<svg xmlns="http://www.w3.org/2000/svg" width="60" height="60" viewBox="0 0 60 60">
  <g id="Category" transform="translate(-760 -2262)">
    <rect id="Rectangle_997" data-name="Rectangle 997" width="60" height="60" transform="translate(760 2262)" fill="none"/>
    <path id="Path_666" data-name="Path 666" d="M161.415,100.3H149.194a4.539,4.539,0,0,1-4.526-4.526V83.552a4.539,4.539,0,0,1,4.526-4.526h12.3a4.539,4.539,0,0,1,4.526,4.526v12.3a4.589,4.589,0,0,1-4.6,4.451Zm28.439,0h-12.3a4.539,4.539,0,0,1-4.526-4.526V83.552a4.539,4.539,0,0,1,4.526-4.526h12.3a4.539,4.539,0,0,1,4.526,4.526v12.3a4.475,4.475,0,0,1-4.526,4.451Zm-28.289,27.685h-12.3a4.539,4.539,0,0,1-4.526-4.526V111.237a4.539,4.539,0,0,1,4.526-4.526h12.3a4.539,4.539,0,0,1,4.526,4.526v12.3a4.626,4.626,0,0,1-4.526,4.451Zm28.364,0H177.709a4.539,4.539,0,0,1-4.526-4.526V111.237a4.539,4.539,0,0,1,4.526-4.526h12.221a4.539,4.539,0,0,1,4.526,4.526v12.3a4.524,4.524,0,0,1-4.526,4.451Z" transform="translate(620.332 2188.974)" fill="#366eef"/>
  </g>
</svg>
