<svg xmlns="http://www.w3.org/2000/svg" width="24" height="24" viewBox="0 0 24 24">
  <g id="Copy" transform="translate(-1484 -235)">
    <rect id="Rectangle_1007" data-name="Rectangle 1007" width="24" height="24" transform="translate(1484 235)" fill="none"/>
    <g id="Icon_feather-copy" data-name="Icon feather-copy" transform="translate(1484.471 235)">
      <path id="Path_675" data-name="Path 675" d="M15.206,13.5h7.676a1.706,1.706,0,0,1,1.706,1.706v7.676a1.706,1.706,0,0,1-1.706,1.706H15.206A1.706,1.706,0,0,1,13.5,22.882V15.206A1.706,1.706,0,0,1,15.206,13.5Z" transform="translate(-4.529 -4.529)" fill="none" stroke="#828282" stroke-linecap="round" stroke-linejoin="round" stroke-width="2"/>
      <path id="Path_676" data-name="Path 676" d="M5.559,14.088H4.706A1.706,1.706,0,0,1,3,12.382V4.706A1.706,1.706,0,0,1,4.706,3h7.676a1.706,1.706,0,0,1,1.706,1.706v.853" fill="none" stroke="#828282" stroke-linecap="round" stroke-linejoin="round" stroke-width="2"/>
    </g>
  </g>
</svg>
