<svg xmlns="http://www.w3.org/2000/svg" width="51" height="51" viewBox="0 0 51 51">
  <g id="Group_708" data-name="Group 708" transform="translate(-251 -797)">
    <rect id="Rectangle_1037" data-name="Rectangle 1037" width="51" height="51" transform="translate(251 797)" fill="none"/>
    <g id="noun_collection_2355468" transform="translate(257 803)">
      <g id="Group_26" data-name="Group 26">
        <path id="Path_32" data-name="Path 32" d="M17.637,2.5H4.443A1.943,1.943,0,0,0,2.5,4.443V17.678a1.943,1.943,0,0,0,1.943,1.943H17.678a1.943,1.943,0,0,0,1.943-1.943V4.443A2,2,0,0,0,17.637,2.5Z" transform="translate(-2.5 -2.5)" fill="none" stroke="#366eef" stroke-width="2"/>
        <path id="Path_33" data-name="Path 33" d="M70.437,2.5H57.243A1.943,1.943,0,0,0,55.3,4.443V17.678a1.943,1.943,0,0,0,1.943,1.943H70.478a1.943,1.943,0,0,0,1.943-1.943V4.443A1.978,1.978,0,0,0,70.437,2.5Z" transform="translate(-33.93 -2.5)" fill="none" stroke="#366eef" stroke-width="2"/>
        <path id="Path_34" data-name="Path 34" d="M17.637,55.3H4.443A1.943,1.943,0,0,0,2.5,57.243V70.478a1.943,1.943,0,0,0,1.943,1.943H17.678a1.943,1.943,0,0,0,1.943-1.943V57.243A2.034,2.034,0,0,0,17.637,55.3Z" transform="translate(-2.5 -33.93)" fill="none" stroke="#366eef" stroke-width="2"/>
        <path id="Path_35" data-name="Path 35" d="M70.437,55.3H57.243A1.943,1.943,0,0,0,55.3,57.243V70.478a1.943,1.943,0,0,0,1.943,1.943H70.478a1.943,1.943,0,0,0,1.943-1.943V57.243A2.005,2.005,0,0,0,70.437,55.3Z" transform="translate(-33.93 -33.93)" fill="none" stroke="#366eef" stroke-width="2"/>
      </g>
    </g>
  </g>
</svg>
