<svg xmlns="http://www.w3.org/2000/svg" width="60" height="60" viewBox="0 0 60 60">
  <g id="Easy" transform="translate(-955 -2262)">
    <rect id="Rectangle_998" data-name="Rectangle 998" width="60" height="60" transform="translate(955 2262)" fill="none"/>
    <g id="Group_642" data-name="Group 642" transform="translate(36.014 -40)">
      <path id="Path_667" data-name="Path 667" d="M222.506,113.229a3.793,3.793,0,0,1-.117,5.374L209.3,131.089a3.854,3.854,0,0,1,5.4.2,3.429,3.429,0,0,1-.236,4.858l-1.781,1.682a3.843,3.843,0,0,1,6,1.048,4.064,4.064,0,0,1-.921,4.834l-1.943,1.835a3.856,3.856,0,0,1,5.233.025l0,0a3.665,3.665,0,0,1,.024,5.392l-7.309,6.9a13.862,13.862,0,0,1-18.812-.075l-5.93-5.6a12.09,12.09,0,0,1-2.543-14.534,15.357,15.357,0,0,0,1.7-10.664,3.612,3.612,0,0,1,1.087-3.337,4.116,4.116,0,0,1,6.749,1.871l1.148,6.627,1.335-1.261,18.642-17.782a3.794,3.794,0,0,1,5.353.116Z" transform="translate(744.891 2200.202)" fill="#366eef"/>
      <path id="Path_668" data-name="Path 668" d="M297.89,34.319l.071-10.262,3.7.026-.071,10.262Z" transform="translate(645.253 2277.943)" fill="#366eef"/>
      <path id="Path_669" data-name="Path 669" d="M346.44,67.308l6.62-6.612,2.614,2.617-6.62,6.612Z" transform="translate(602.366 2245.578)" fill="#366eef"/>
      <path id="Path_670" data-name="Path 670" d="M202.11,65.623,204.718,63l6.533,6.5-2.608,2.623Z" transform="translate(729.86 2243.543)" fill="#366eef"/>
    </g>
  </g>
</svg>
