<svg xmlns="http://www.w3.org/2000/svg" width="14" height="14" viewBox="0 0 14 14">
  <g id="Ethereum" transform="translate(-599 -667)">
    <rect id="Rectangle_1039" data-name="Rectangle 1039" width="14" height="14" transform="translate(599 667)" fill="none"/>
    <g id="Layer_x0020_1" transform="translate(602.722 668.661)">
      <g id="_1421394342400">
        <g id="Group_712" data-name="Group 712">
          <path id="Path_695" data-name="Path 695" d="M383.572,0,383.5.243V7.3l.072.071,3.277-1.937Z" transform="translate(-380.294)" fill="#343434"/>
          <path id="Path_696" data-name="Path 696" d="M3.278,0,0,5.438,3.278,7.376V0Z" fill="#8c8c8c"/>
          <path id="Path_697" data-name="Path 697" d="M387.28,726.826l-.04.049v2.515l.04.118,3.28-4.619Z" transform="translate(-384.003 -718.83)" fill="#3c3c3b"/>
          <path id="Path_698" data-name="Path 698" d="M3.278,729.509v-2.682L0,724.89Z" transform="translate(0 -718.83)" fill="#8c8c8c"/>
          <path id="Path_699" data-name="Path 699" d="M392.07,475.757l3.278-1.937-3.278-1.49Z" transform="translate(-388.792 -468.381)" fill="#141414"/>
          <path id="Path_700" data-name="Path 700" d="M0,473.82l3.278,1.937V472.33Z" transform="translate(0 -468.381)" fill="#393939"/>
        </g>
      </g>
    </g>
  </g>
</svg>
