<svg xmlns="http://www.w3.org/2000/svg" width="110" height="110" viewBox="0 0 110 110">
  <g id="image" transform="translate(-372 -618)">
    <rect id="Rectangle_271" data-name="Rectangle 271" width="110" height="110" transform="translate(372 618)" fill="none"/>
    <g id="Icon_feather-image" data-name="Icon feather-image" transform="translate(380 626)">
      <path id="Path_34" data-name="Path 34" d="M15.053,4.5H88.926A10.553,10.553,0,0,1,99.479,15.053V88.926A10.553,10.553,0,0,1,88.926,99.479H15.053A10.553,10.553,0,0,1,4.5,88.926V15.053A10.553,10.553,0,0,1,15.053,4.5Z" transform="translate(-4.5 -4.5)" fill="none" stroke="#366eef" stroke-linecap="round" stroke-linejoin="round" stroke-width="5"/>
      <path id="Path_35" data-name="Path 35" d="M26.33,18.415A7.915,7.915,0,1,1,18.415,10.5,7.915,7.915,0,0,1,26.33,18.415Z" transform="translate(10.607 10.607)" fill="none" stroke="#366eef" stroke-linecap="round" stroke-linejoin="round" stroke-width="5"/>
      <path id="Path_36" data-name="Path 36" d="M91.926,41.383,65.543,15,7.5,73.043" transform="translate(3.053 21.936)" fill="none" stroke="#366eef" stroke-linecap="round" stroke-linejoin="round" stroke-width="5"/>
    </g>
  </g>
</svg>
