<svg xmlns="http://www.w3.org/2000/svg" width="100" height="100" viewBox="0 0 100 100">
  <g id="No_information_available" data-name="No information available" transform="translate(-556 -501)">
    <rect id="Rectangle_1021" data-name="Rectangle 1021" width="100" height="100" transform="translate(556 501)" fill="none"/>
    <path id="noun-not-found-3773931" d="M122.923,35A17.923,17.923,0,0,0,105,52.936v50.64A17.916,17.916,0,0,0,122.923,121.5h50.641A17.927,17.927,0,0,0,191.5,103.575V52.936A17.934,17.934,0,0,0,173.564,35Zm-4.912,7.971a5.056,5.056,0,0,1,3.569,1.485l5.79,5.784,5.792-5.784a5.045,5.045,0,0,1,7.132,7.138l-5.79,5.79,5.79,5.781a5.047,5.047,0,0,1-7.132,7.144l-5.792-5.79-5.79,5.79a5.048,5.048,0,0,1-7.135-7.144l5.792-5.792-5.792-5.777a5.054,5.054,0,0,1,3.566-8.622Zm41.76,0a5.047,5.047,0,0,1,3.566,1.485l5.792,5.784,5.79-5.784a5.046,5.046,0,0,1,7.135,7.138l-5.781,5.777,5.781,5.792a5.048,5.048,0,0,1-7.135,7.144l-5.79-5.79-5.792,5.79a5.047,5.047,0,0,1-7.131-7.144l5.777-5.792-5.777-5.777a5.054,5.054,0,0,1,3.566-8.622ZM148.129,87.425v0a25.9,25.9,0,0,1,10.242,2.016c6.388,2.725,10.568,7.942,10.568,13.79a1.492,1.492,0,1,1-2.984,0c0-4.42-3.193-8.667-8.761-11.041a23.6,23.6,0,0,0-18.077.079c-5.527,2.422-8.647,6.7-8.577,11.117a1.492,1.492,0,1,1-2.984.045c-.092-5.848,4.013-11.111,10.36-13.893a25.884,25.884,0,0,1,10.212-2.115Z" transform="translate(458 473)" fill="#bbcef9"/>
  </g>
</svg>
