<svg xmlns="http://www.w3.org/2000/svg" width="77" height="77" viewBox="0 0 77 77">
  <g id="Group_939" data-name="Group 939" transform="translate(-340 -4925)">
    <rect id="Rectangle_1161" data-name="Rectangle 1161" width="77" height="77" transform="translate(340 4925)" fill="none"/>
    <g id="NFT_Infrastructure" data-name="NFT Infrastructure" transform="translate(355 4941)">
      <rect id="Rectangle_1042" data-name="Rectangle 1042" width="41" height="31" rx="6" transform="translate(3 14)" fill="#8ebdeb"/>
      <g id="Group_848" data-name="Group 848">
        <path id="Rectangle_1044" data-name="Rectangle 1044" d="M0,0H7A0,0,0,0,1,7,0V13.5A3.5,3.5,0,0,1,3.5,17h0A3.5,3.5,0,0,1,0,13.5V0A0,0,0,0,1,0,0Z" fill="#016dd9"/>
        <path id="Rectangle_1045" data-name="Rectangle 1045" d="M0,0H6A0,0,0,0,1,6,0V14a3,3,0,0,1-3,3H3a3,3,0,0,1-3-3V0A0,0,0,0,1,0,0Z" transform="translate(7)" fill="#fff"/>
        <path id="Rectangle_1046" data-name="Rectangle 1046" d="M0,0H7A0,0,0,0,1,7,0V13.5A3.5,3.5,0,0,1,3.5,17h0A3.5,3.5,0,0,1,0,13.5V0A0,0,0,0,1,0,0Z" transform="translate(13)" fill="#016dd9"/>
        <path id="Rectangle_1047" data-name="Rectangle 1047" d="M0,0H7A0,0,0,0,1,7,0V13.5A3.5,3.5,0,0,1,3.5,17h0A3.5,3.5,0,0,1,0,13.5V0A0,0,0,0,1,0,0Z" transform="translate(20)" fill="#fff"/>
        <path id="Rectangle_1048" data-name="Rectangle 1048" d="M0,0H7A0,0,0,0,1,7,0V13.5A3.5,3.5,0,0,1,3.5,17h0A3.5,3.5,0,0,1,0,13.5V0A0,0,0,0,1,0,0Z" transform="translate(27)" fill="#016dd9"/>
        <path id="Rectangle_1049" data-name="Rectangle 1049" d="M0,0H6A0,0,0,0,1,6,0V14a3,3,0,0,1-3,3H3a3,3,0,0,1-3-3V0A0,0,0,0,1,0,0Z" transform="translate(34)" fill="#fff"/>
        <path id="Rectangle_1050" data-name="Rectangle 1050" d="M0,0H7A0,0,0,0,1,7,0V13.5A3.5,3.5,0,0,1,3.5,17h0A3.5,3.5,0,0,1,0,13.5V0A0,0,0,0,1,0,0Z" transform="translate(40)" fill="#016dd9"/>
      </g>
    </g>
  </g>
</svg>
