<svg xmlns="http://www.w3.org/2000/svg" width="14" height="14" viewBox="0 0 14 14">
  <g id="Mint" transform="translate(-567 -667)">
    <rect id="Rectangle_1039" data-name="Rectangle 1039" width="14" height="14" transform="translate(567 667)" fill="none"/>
    <path id="Path_694" data-name="Path 694" d="M200.715,95.346l1.6,1.632a.478.478,0,0,1-.675.677l-.547-.551c-.125-.125-.226-.084-.226.093v2.194a.477.477,0,1,1-.954,0V97.2c0-.176-.1-.218-.226-.093l-.547.551a.478.478,0,0,1-.675-.677l1.583-1.63a.464.464,0,0,1,.668,0Zm-3.427,2.818a.558.558,0,0,1,.789.789,3.269,3.269,0,1,0,4.624,0,.558.558,0,1,1,.789-.789,4.386,4.386,0,1,1-6.2,0Z" transform="translate(373.997 573.795)" fill-rule="evenodd"/>
  </g>
</svg>
