<svg xmlns="http://www.w3.org/2000/svg" width="89" height="89" viewBox="0 0 89 89">
  <g id="NFTs" transform="translate(-1111 -1397)">
    <rect id="Rectangle_1010" data-name="Rectangle 1010" width="89" height="89" transform="translate(1111 1397)" fill="rgba(255,255,255,0)"/>
    <g id="Group_625" data-name="Group 625" transform="translate(1114 1412)">
      <path id="Path_664" data-name="Path 664" d="M128.515,137.043a2.571,2.571,0,0,0-4.566-.064l-17.091,31.885L95.214,150.818a2.551,2.551,0,0,0-4.285,0L70.522,182.7a2.58,2.58,0,0,0,2.143,3.941H149.19a2.621,2.621,0,0,0,2.283-3.75Z" transform="translate(-70.134 -126.7)" fill="#366eef"/>
      <path id="Path_665" data-name="Path 665" d="M230.229,97.338a11.479,11.479,0,1,0-8.117-3.362A11.477,11.477,0,0,0,230.229,97.338Zm0-17.856a6.376,6.376,0,1,1-4.51,1.868A6.38,6.38,0,0,1,230.229,79.482Z" transform="translate(-197.087 -74.38)" fill="#0e41b7"/>
    </g>
  </g>
</svg>
