<svg xmlns="http://www.w3.org/2000/svg" width="182" height="182" viewBox="0 0 182 182">
  <g id="NO_items" data-name="NO items" transform="translate(-1111 -1397)">
    <rect id="Rectangle_1010" data-name="Rectangle 1010" width="182" height="182" transform="translate(1111 1397)" fill="rgba(255,255,255,0)"/>
    <g id="Group_625" data-name="Group 625" transform="translate(1117.131 1427.656)">
      <path id="Path_664" data-name="Path 664" d="M189.452,138.521a5.255,5.255,0,0,0-9.333-.13L145.19,203.557l-23.8-36.883a5.213,5.213,0,0,0-8.758,0L70.927,231.84a5.272,5.272,0,0,0,4.379,8.055h156.4a5.357,5.357,0,0,0,4.666-7.664Z" transform="translate(-70.134 -117.382)" fill="#366eef" opacity="0.242"/>
      <path id="Path_665" data-name="Path 665" d="M242.21,121.3a23.46,23.46,0,1,0-16.588-6.871A23.457,23.457,0,0,0,242.21,121.3Zm0-36.493a13.031,13.031,0,1,1-9.217,3.817A13.039,13.039,0,0,1,242.21,84.807Z" transform="translate(-174.476 -74.38)" fill="#cedcfb"/>
    </g>
  </g>
</svg>
