<svg xmlns="http://www.w3.org/2000/svg" width="100" height="100" viewBox="0 0 100 100">
  <g id="Notification" transform="translate(-522 -333)">
    <rect id="Rectangle_1020" data-name="Rectangle 1020" width="100" height="100" transform="translate(522 333)" fill="none"/>
    <g id="Group_670" data-name="Group 670" transform="translate(506 315.5)">
      <g id="Group_47" data-name="Group 47" transform="translate(26 22.5)">
        <path id="Path_82" data-name="Path 82" d="M58.248,33.36A29.773,29.773,0,0,0,35.922,62.189V82.032a3.311,3.311,0,0,1-3.3,3.31,6.615,6.615,0,1,0,.013,13.23H98.749a6.615,6.615,0,1,0,.013-13.23,3.3,3.3,0,0,1-3.3-3.31V62.189A29.776,29.776,0,0,0,73.132,33.36V29.943a7.442,7.442,0,1,0-14.884,0Zm-4.134,68.52H77.266a11.576,11.576,0,0,1-23.152,0Z" transform="translate(-26 -22.5)" fill="#bbcef9"/>
      </g>
    </g>
  </g>
</svg>
