<svg xmlns="http://www.w3.org/2000/svg" width="60" height="60" viewBox="0 0 60 60">
  <g id="Offers" transform="translate(-320 -2370)">
    <rect id="Rectangle_997" data-name="Rectangle 997" width="60" height="60" transform="translate(320 2370)" fill="none"/>
    <path id="Subtraction_1" data-name="Subtraction 1" d="M25.012,50.023a25.12,25.12,0,0,1-5.036-.509,24.879,24.879,0,0,1-8.941-3.767A25.13,25.13,0,0,1,1.968,34.74,24.868,24.868,0,0,1,.509,30.047a25.17,25.17,0,0,1,0-10.071,24.88,24.88,0,0,1,3.767-8.941A25.13,25.13,0,0,1,15.284,1.968,24.868,24.868,0,0,1,19.976.509a25.17,25.17,0,0,1,10.071,0,24.879,24.879,0,0,1,8.941,3.767,25.131,25.131,0,0,1,9.067,11.007,24.868,24.868,0,0,1,1.459,4.693,25.17,25.17,0,0,1,0,10.071,24.879,24.879,0,0,1-3.767,8.941A25.131,25.131,0,0,1,34.74,48.055a24.867,24.867,0,0,1-4.693,1.459A25.12,25.12,0,0,1,25.012,50.023Zm8.445-36.03a2.558,2.558,0,0,0-1.81.751l-16.9,16.9a2.542,2.542,0,0,0-.563.849,2.589,2.589,0,0,0,0,1.935,2.5,2.5,0,0,0,1.4,1.4,2.481,2.481,0,0,0,1.909,0,2.529,2.529,0,0,0,.836-.546l16.9-16.9a2.543,2.543,0,0,0,.563-.849,2.589,2.589,0,0,0,0-1.935,2.543,2.543,0,0,0-.563-.849,2.369,2.369,0,0,0-.819-.563A2.475,2.475,0,0,0,33.456,13.994Zm-1.389,14.23a3.832,3.832,0,1,0,1.5.3A3.82,3.82,0,0,0,32.067,28.224ZM17.956,14.112a3.832,3.832,0,1,0,1.5.3A3.82,3.82,0,0,0,17.956,14.112Z" transform="translate(325 2374)" fill="#366eef"/>
  </g>
</svg>
