<svg xmlns="http://www.w3.org/2000/svg" width="181" height="181" viewBox="0 0 181 181">
  <g id="Polygon" transform="translate(0.12)">
    <rect id="Rectangle_1091" data-name="Rectangle 1091" width="181" height="181" transform="translate(-0.12)" fill="none"/>
    <path id="Path_9" data-name="Path 9" d="M133.3,57.59a9.8,9.8,0,0,0-9.786,0l-22.45,13.374L85.807,79.686,63.357,93.06a9.8,9.8,0,0,1-9.786,0L35.727,82.594a10.044,10.044,0,0,1-4.893-8.432V53.52a9.442,9.442,0,0,1,4.893-8.431L53.284,34.913a9.8,9.8,0,0,1,9.786,0L80.627,45.089a10.044,10.044,0,0,1,4.893,8.431V66.894l15.254-9.013V44.507a9.442,9.442,0,0,0-4.893-8.431L63.357,16.887a9.8,9.8,0,0,0-9.786,0l-33.1,19.189a9.442,9.442,0,0,0-4.893,8.431V83.175a9.442,9.442,0,0,0,4.893,8.431l33.1,19.189a9.8,9.8,0,0,0,9.786,0l22.45-13.083L101.062,88.7l22.45-13.083a9.8,9.8,0,0,1,9.786,0l17.557,10.176a10.044,10.044,0,0,1,4.893,8.431v20.642a9.442,9.442,0,0,1-4.893,8.431L133.3,133.763a9.8,9.8,0,0,1-9.786,0l-17.557-10.176a10.044,10.044,0,0,1-4.893-8.432V101.782l-15.254,9.013v13.374A9.442,9.442,0,0,0,90.7,132.6l33.1,19.189a9.8,9.8,0,0,0,9.786,0l33.1-19.189a10.044,10.044,0,0,0,4.893-8.431V85.5a9.443,9.443,0,0,0-4.893-8.431Z" transform="translate(-3.579 6.421)" fill="#7b3fe4"/>
  </g>
</svg>
