<svg xmlns="http://www.w3.org/2000/svg" width="31" height="31" viewBox="0 0 31 31">
  <g id="Profile" transform="translate(-1718 -21)">
    <rect id="Rectangle_212" data-name="Rectangle 212" width="31" height="31" rx="3" transform="translate(1718 21)" fill="none"/>
    <path id="Icon_awesome-user" data-name="Icon awesome-user" d="M9.005,10.292A5.146,5.146,0,1,0,3.859,5.146,5.146,5.146,0,0,0,9.005,10.292Zm3.6,1.286h-.671a7,7,0,0,1-5.862,0H5.4a5.4,5.4,0,0,0-5.4,5.4v1.672a1.93,1.93,0,0,0,1.93,1.93H16.081a1.93,1.93,0,0,0,1.93-1.93V16.982A5.4,5.4,0,0,0,12.608,11.578Z" transform="translate(1724.206 25.5)" fill="none" stroke="#828282" stroke-width="1"/>
  </g>
</svg>
