<svg xmlns="http://www.w3.org/2000/svg" width="89" height="89" viewBox="0 0 89 89">
  <g id="Sale" transform="translate(-1502 -1397)">
    <rect id="Rectangle_1011" data-name="Rectangle 1011" width="89" height="89" transform="translate(1502 1397)" fill="rgba(255,255,255,0)"/>
    <g id="Group_626" data-name="Group 626" transform="translate(1518 1413)">
      <path id="noun-sale-3266461" d="M103.2-.06a1.77,1.77,0,0,0-1.282.525L70.55,31.83a1.768,1.768,0,0,0,0,2.493L92.232,56.014a1.769,1.769,0,0,0,2.5,0L126.09,24.649a1.769,1.769,0,0,0,.522-1.278l-.39-21.305A1.768,1.768,0,0,0,124.484.333Z" transform="translate(-70.036 0.06)" fill="#366eef"/>
      <path id="noun-sale-3266461-2" data-name="noun-sale-3266461" d="M225.115,80.093a5.249,5.249,0,1,1-5.246,5.242A5.273,5.273,0,0,1,225.115,80.093Zm-17.558,9.314a1.767,1.767,0,0,1,1.267.535l11.59,11.59a1.768,1.768,0,1,1-2.493,2.494l-11.59-11.576a1.768,1.768,0,0,1,1.226-3.043Zm-5.626,5.809a1.768,1.768,0,0,1,1.278.536l11.58,11.59a1.768,1.768,0,1,1-2.494,2.507l-11.59-11.59a1.768,1.768,0,0,1,1.226-3.043Zm-5.715,5.719a1.768,1.768,0,0,1,1.278.536l11.576,11.59a1.768,1.768,0,1,1-2.494,2.5l-11.59-11.59a1.768,1.768,0,0,1,1.229-3.039Z" transform="translate(-183.091 -70.984)" fill="#fff" opacity="0.9"/>
    </g>
  </g>
</svg>
