<svg xmlns="http://www.w3.org/2000/svg" width="14" height="14" viewBox="0 0 14 14">
  <g id="Sale" transform="translate(-546 -667)">
    <rect id="Rectangle_1039" data-name="Rectangle 1039" width="14" height="14" transform="translate(546 667)" fill="none"/>
    <path id="Path_693" data-name="Path 693" d="M94.022,14.28a.478.478,0,0,0-.672,0l-1.2,1.2-3.35-.022a1.1,1.1,0,0,0-.781.314l-3.838,3.849a1.093,1.093,0,0,0,0,1.539l2.96,2.96a1.093,1.093,0,0,0,1.539,0l3.838-3.838a1.054,1.054,0,0,0,.314-.781l-.011-3.35,1.2-1.2a.478.478,0,0,0,0-.672Zm-5.811,8.164a.393.393,0,0,1-.542,0l-1.811-1.821a.383.383,0,0,1,.542-.542l1.811,1.811A.393.393,0,0,1,88.211,22.443Zm1.182-1.182a.393.393,0,0,1-.542,0L87.04,19.451a.383.383,0,1,1,.542-.542l1.811,1.811a.38.38,0,0,1,0,.542Zm1.117-2.569a.9.9,0,1,1,.9-.9A.9.9,0,0,1,90.51,18.692Z" transform="translate(464.139 654.858)"/>
  </g>
</svg>
