<svg xmlns="http://www.w3.org/2000/svg" width="541" height="540" viewBox="0 0 541 540">
  <g id="Group_845" data-name="Group 845" transform="translate(-294 -1356)">
    <rect id="Rectangle_1036" data-name="Rectangle 1036" width="540" height="540" transform="translate(295 1356)" fill="rgba(255,255,255,0)"/>
    <g id="Group_844" data-name="Group 844" transform="translate(-1 27)">
      <rect id="Rectangle_1016" data-name="Rectangle 1016" width="516" height="418" rx="22" transform="translate(295 1390)" fill="#0b4177"/>
      <rect id="Rectangle_1017" data-name="Rectangle 1017" width="177" height="88" rx="20" transform="translate(659 1555)" fill="#016dd9"/>
      <g id="Group_827" data-name="Group 827" transform="translate(0 193)">
        <rect id="Rectangle_1018" data-name="Rectangle 1018" width="419" height="54" rx="19" transform="translate(344 1494)" fill="#255585"/>
        <circle id="Ellipse_86" data-name="Ellipse 86" cx="11" cy="11" r="11" transform="translate(409 1510)" fill="#fff"/>
        <circle id="Ellipse_87" data-name="Ellipse 87" cx="11" cy="11" r="11" transform="translate(461 1510)" fill="#fff"/>
        <circle id="Ellipse_88" data-name="Ellipse 88" cx="11" cy="11" r="11" transform="translate(512 1510)" fill="#fff"/>
        <circle id="Ellipse_89" data-name="Ellipse 89" cx="11" cy="11" r="11" transform="translate(564 1510)" fill="#fff"/>
        <circle id="Ellipse_90" data-name="Ellipse 90" cx="11" cy="11" r="11" transform="translate(615 1510)" fill="#fff"/>
        <circle id="Ellipse_91" data-name="Ellipse 91" cx="11" cy="11" r="11" transform="translate(667 1510)" fill="#fff"/>
      </g>
      <ellipse id="Ellipse_92" data-name="Ellipse 92" cx="25" cy="23" rx="25" ry="23" transform="translate(691 1580)" fill="#fafafa"/>
    </g>
  </g>
</svg>
