<svg xmlns="http://www.w3.org/2000/svg" width="77" height="77" viewBox="0 0 77 77">
  <g id="Group_938" data-name="Group 938" transform="translate(-219 -4925)">
    <rect id="Rectangle_1160" data-name="Rectangle 1160" width="77" height="77" transform="translate(219 4925)" fill="none"/>
    <g id="NFT_Tools" data-name="NFT Tools" transform="translate(233.6 4941)">
      <path id="Path_704" data-name="Path 704" d="M16.9,4.7A8.423,8.423,0,0,1,27.7,9.8a8,8,0,0,1,0,5.7L53.8,41.6l-5.1,5.1L22.5,20.6a8.423,8.423,0,0,1-10.8-5.1,8,8,0,0,1,0-5.7l5.4,5.4a3.607,3.607,0,0,0,5.2-5l-.1-.1L16.9,4.7Z" transform="translate(-9.959 -4.191)" fill="#016dd9"/>
      <path id="Path_705" data-name="Path 705" d="M44,8.5l7.6-4.3L55,7.6l-4.2,7.7-4.3.9L17.3,45.3l-3.4-3.4L43.1,12.7Z" transform="translate(-9.959 -4.191)" fill="#8ebdeb"/>
      <path id="Path_706" data-name="Path 706" d="M22.9,31.2,28,36.3,16.1,48.2a3.621,3.621,0,0,1-5.1,0,3.544,3.544,0,0,1-.2-4.8l.2-.3L22.9,31.2Z" transform="translate(-9.959 -4.191)" fill="#8ebdeb"/>
      <path id="Path_707" data-name="Path 707" d="M33.949,21.893l-5.092,5.091,3.4,3.394,5.09-5.09-3.393-3.4Z" transform="translate(-9.959 -4.191)" fill="#004890"/>
    </g>
  </g>
</svg>
