<svg xmlns="http://www.w3.org/2000/svg" width="18" height="18" viewBox="0 0 18 18">
  <g id="web" transform="translate(-904 -492)">
    <rect id="Rectangle_278" data-name="Rectangle 278" width="18" height="18" transform="translate(904 492)" fill="none"/>
    <g id="Icon_feather-globe" data-name="Icon feather-globe" transform="translate(902 490)">
      <path id="Path_57" data-name="Path 57" d="M18.024,10.512A7.512,7.512,0,1,1,10.512,3,7.512,7.512,0,0,1,18.024,10.512Z" fill="none" stroke="#707070" stroke-linecap="round" stroke-linejoin="round" stroke-width="1"/>
      <path id="Path_58" data-name="Path 58" d="M3,18H18.024" transform="translate(0 -7.488)" fill="none" stroke="#707070" stroke-linecap="round" stroke-linejoin="round" stroke-width="1"/>
      <path id="Path_59" data-name="Path 59" d="M15,3a11.494,11.494,0,0,1,3,7.512,11.494,11.494,0,0,1-3,7.512,11.494,11.494,0,0,1-3-7.512A11.494,11.494,0,0,1,15,3Z" transform="translate(-4.493)" fill="none" stroke="#707070" stroke-linecap="round" stroke-linejoin="round" stroke-width="1"/>
    </g>
  </g>
</svg>
