<svg xmlns="http://www.w3.org/2000/svg" width="178.801" height="42.727" viewBox="0 0 178.801 42.727">
  <g id="Group_15" data-name="Group 15" transform="translate(-142.915 -770.674)">
    <g id="Group_3" data-name="Group 3" transform="translate(189.429 777.015)">
      <path id="Subtraction_6" data-name="Subtraction 6" d="M117.5,29.107a14.562,14.562,0,0,1-10.276-4.079,13.871,13.871,0,0,1-3.115-4.609,15.227,15.227,0,0,1-1.142-5.886,15.144,15.144,0,0,1,1.113-5.793,13.846,13.846,0,0,1,3.041-4.565H101V28.821H96.329V4.175H78.561v8.393h9.416v3.807H78.561V28.821H69.35L67.3,23.007H67.3L65.972,19.2h.021L61.367,5.977l-4.5,12.761-.06.169-.1.293h0l-1.29,3.807H55.39l-2.047,5.813H44.132L30.09,7.574V28.821H21.011l-1.932-5.154L17.518,19.2,12.9,5.977,8.328,18.916H8.316L6.936,23.007H6.918L4.871,28.821H0L10.193.327h5.4l9.825,27.463V.327H30.09L44.132,21.534V.327H48.8V27.905L58.665.327h5.4l9.826,27.463V.368H108.57V2.92a15.1,15.1,0,0,1,19.24,1.154,13.77,13.77,0,0,1,3.1,4.6,15.251,15.251,0,0,1,1.131,5.863,15.355,15.355,0,0,1-1.131,5.886,13.8,13.8,0,0,1-3.1,4.609A14.565,14.565,0,0,1,117.5,29.107Zm0-25.014c-5.828,0-9.743,4.2-9.743,10.44,0,6.293,3.915,10.521,9.743,10.521s9.744-4.228,9.744-10.521C127.247,8.289,123.331,4.093,117.5,4.093Z" transform="translate(0)" fill="#1e1e1e"/>
      <path id="Subtraction_6_-_Outline" data-name="Subtraction 6 - Outline" d="M117.5,29.357a14.81,14.81,0,0,1-10.451-4.15,14.12,14.12,0,0,1-3.171-4.692,15.475,15.475,0,0,1-1.162-5.982,15.393,15.393,0,0,1,1.132-5.888,14.109,14.109,0,0,1,2.685-4.219h-5.291V29.071H96.079V4.425H78.811v7.893h9.416v4.307H78.811V29.071H74.145v.161l-.058-.161H69.173l-2.047-5.813H67.12l-1.5-4.307h.02L61.366,6.731l-4.376,12.4-.05.154-1.347,3.977h-.026L53.52,29.071H48.648l-.1.276v-.276H44L30.34,8.405V29.071H25.673v.161l-.058-.161H20.837l-1.995-5.322L12.894,6.732,8.505,19.166H8.5L7.116,23.257H7.095L5.048,29.071h-5.4L10.017.077h5.756l9.4,26.272V.077h5.052L43.882,20.7V.077h5.167V26.464L58.489.077h5.756l9.4,26.272V.118H108.82v2.31a15.365,15.365,0,0,1,19.165,1.466,14.018,14.018,0,0,1,3.152,4.679,15.5,15.5,0,0,1,1.15,5.959,15.6,15.6,0,0,1-1.15,5.982,14.045,14.045,0,0,1-3.152,4.692A14.813,14.813,0,0,1,117.5,29.357ZM100.746,3.925h6.983l-.429.427a13.6,13.6,0,0,0-2.986,4.483,14.9,14.9,0,0,0-1.095,5.7,14.978,14.978,0,0,0,1.123,5.79A13.623,13.623,0,0,0,107.4,24.85a14.773,14.773,0,0,0,20.233,0,13.548,13.548,0,0,0,3.04-4.526,15.106,15.106,0,0,0,1.112-5.791,15,15,0,0,0-1.112-5.768,13.521,13.521,0,0,0-3.04-4.514A14.849,14.849,0,0,0,108.72,3.119l-.4.3V.618H74.145V28.571h4.167V16.125h9.416V12.818H78.311V3.925H96.579V28.571h4.167ZM69.527,28.571h4.381L63.893.577H58.841L48.826,28.571h4.34l2.047-5.813h.021l1.121-3.307h0l.114-.333,4.9-13.894L66.345,19.45h-.021l1.152,3.307h0Zm-25.261,0h4.283V.577H44.382V22.364L29.955.577H25.672V28.571H29.84V6.742Zm-23.082,0h4.252L15.421.577H10.369L.355,28.571H4.694l2.047-5.813h.016l1.379-4.091h.015L12.9,5.223l6.417,18.358ZM117.5,25.3a9.57,9.57,0,0,1-7.24-2.981,11.2,11.2,0,0,1-2.753-7.79A11.07,11.07,0,0,1,110.263,6.8a10.34,10.34,0,0,1,14.48,0,11.069,11.069,0,0,1,2.754,7.732,11.2,11.2,0,0,1-2.753,7.79A9.571,9.571,0,0,1,117.5,25.3Zm0-20.961c-5.678,0-9.493,4.095-9.493,10.19,0,6.143,3.815,10.271,9.493,10.271S127,20.677,127,14.533C127,8.438,123.182,4.343,117.5,4.343Z" transform="translate(0)" fill="#1e1e1e"/>
    </g>
    <path id="Subtraction_9" data-name="Subtraction 9" d="M20.663,42.727v0L16.936,36.08H0L20.663,0,41.326,36.08H24.389l-3.725,6.645Zm-.592-21.233v0l4.035,7.056h4.4L20.071,13.824,11.46,28.552h4.612l4-7.056Z" transform="translate(142.915 770.674)" fill="#366eef"/>
  </g>
</svg>
