<svg xmlns="http://www.w3.org/2000/svg" width="16.143" height="16.143" viewBox="0 0 16.143 16.143">
  <path id="Icon_awesome-check-circle" data-name="Icon awesome-check-circle" d="M16.705,8.634A8.071,8.071,0,1,1,8.634.563,8.071,8.071,0,0,1,16.705,8.634ZM7.7,12.908l5.988-5.988a.521.521,0,0,0,0-.736l-.736-.736a.521.521,0,0,0-.736,0L7.332,10.33,5.052,8.05a.521.521,0,0,0-.736,0l-.736.736a.521.521,0,0,0,0,.736l3.385,3.385a.521.521,0,0,0,.736,0Z" transform="translate(-0.563 -0.563)" fill="#17af51"/>
</svg>
