<svg xmlns="http://www.w3.org/2000/svg" xmlns:xlink="http://www.w3.org/1999/xlink" width="102" height="102" viewBox="0 0 102 102">
  <defs>
    <clipPath id="clip-path">
      <rect id="Rectangle_988" data-name="Rectangle 988" width="4.759" height="66.582" fill="#016dd9"/>
    </clipPath>
    <clipPath id="clip-path-2">
      <rect id="Rectangle_989" data-name="Rectangle 989" width="4.758" height="66.582" fill="#016dd9"/>
    </clipPath>
    <clipPath id="clip-path-5">
      <rect id="Rectangle_992" data-name="Rectangle 992" width="11.356" height="11.356" fill="none"/>
    </clipPath>
    <clipPath id="clip-path-6">
      <rect id="Rectangle_993" data-name="Rectangle 993" width="8.282" height="8.282" fill="#fafafa"/>
    </clipPath>
  </defs>
  <g id="Group_948" data-name="Group 948" transform="translate(-65 -2891)">
    <rect id="Rectangle_1168" data-name="Rectangle 1168" width="102" height="102" transform="translate(65 2891)" fill="none"/>
    <g id="Fully_customisable" data-name="Fully customisable" transform="translate(-0.355 3.643)">
      <path id="Path_647" data-name="Path 647" d="M96.209,69.657h0a3.916,3.916,0,0,0,3.916-3.916V3.916a3.916,3.916,0,0,0-7.832,0V65.74a3.916,3.916,0,0,0,3.916,3.916" transform="translate(54.987 2903.356)" fill="#c3dbf3"/>
      <path id="Path_650" data-name="Path 650" d="M66.209,69.657h0a3.916,3.916,0,0,0,3.916-3.916V3.916a3.916,3.916,0,0,0-7.832,0V65.74a3.916,3.916,0,0,0,3.916,3.916" transform="translate(61.932 2903.356)" fill="#c3dbf3"/>
      <path id="Path_653" data-name="Path 653" d="M36.209,69.657h0a3.916,3.916,0,0,0,3.916-3.916V3.916a3.916,3.916,0,0,0-7.832,0V65.74a3.916,3.916,0,0,0,3.916,3.916" transform="translate(68.879 2903.356)" fill="#c3dbf3"/>
      <path id="Path_656" data-name="Path 656" d="M6.209,69.657h0a3.916,3.916,0,0,0,3.916-3.916V3.916a3.916,3.916,0,1,0-7.832,0V65.74a3.916,3.916,0,0,0,3.916,3.916" transform="translate(75.825 2903.356)" fill="#c3dbf3"/>
      <g id="Group_765" data-name="Group 765" transform="translate(148.817 2905)" opacity="0.999" style="mix-blend-mode: normal;isolation: isolate">
        <g id="Group_764" data-name="Group 764">
          <g id="Group_763" data-name="Group 763" clip-path="url(#clip-path)">
            <path id="Path_648" data-name="Path 648" d="M96.672,68.583A2.382,2.382,0,0,1,94.293,66.2V4.379a2.379,2.379,0,0,1,4.758,0V66.2a2.382,2.382,0,0,1-2.379,2.379" transform="translate(-94.293 -2)" fill="#016dd9"/>
          </g>
        </g>
      </g>
      <path id="Path_649" data-name="Path 649" d="M101.356,11.313a5.678,5.678,0,1,1-5.678-5.678,5.678,5.678,0,0,1,5.678,5.678" transform="translate(55.518 2906.064)" fill="#407bff"/>
      <g id="Group_768" data-name="Group 768" transform="translate(125.762 2904.894)" opacity="0.999" style="mix-blend-mode: normal;isolation: isolate">
        <g id="Group_767" data-name="Group 767">
          <g id="Group_766" data-name="Group 766" clip-path="url(#clip-path-2)">
            <path id="Path_651" data-name="Path 651" d="M66.672,68.583A2.382,2.382,0,0,1,64.293,66.2V4.379a2.379,2.379,0,0,1,4.758,0V66.2a2.382,2.382,0,0,1-2.379,2.379" transform="translate(-64.293 -2)" fill="#016dd9"/>
          </g>
        </g>
      </g>
      <path id="Path_652" data-name="Path 652" d="M71.356,71.313a5.678,5.678,0,1,1-5.678-5.678,5.678,5.678,0,0,1,5.678,5.678" transform="translate(62.463 2888.159)" fill="#407bff"/>
      <g id="Group_771" data-name="Group 771" transform="translate(102.709 2904.894)" opacity="0.999" style="mix-blend-mode: normal;isolation: isolate">
        <g id="Group_770" data-name="Group 770">
          <g id="Group_769" data-name="Group 769" clip-path="url(#clip-path-2)">
            <path id="Path_654" data-name="Path 654" d="M36.672,68.583A2.382,2.382,0,0,1,34.293,66.2V4.379a2.379,2.379,0,0,1,4.758,0V66.2a2.382,2.382,0,0,1-2.379,2.379" transform="translate(-34.293 -2)" fill="#016dd9"/>
          </g>
        </g>
      </g>
      <path id="Path_655" data-name="Path 655" d="M41.356,31.313a5.678,5.678,0,1,1-5.678-5.678,5.678,5.678,0,0,1,5.678,5.678" transform="translate(69.411 2897.421)" fill="#407bff"/>
      <g id="Group_774" data-name="Group 774" transform="translate(79.655 2904.894)" opacity="0.999" style="mix-blend-mode: normal;isolation: isolate">
        <g id="Group_773" data-name="Group 773">
          <g id="Group_772" data-name="Group 772" clip-path="url(#clip-path-2)">
            <path id="Path_657" data-name="Path 657" d="M6.672,68.583A2.382,2.382,0,0,1,4.293,66.2V4.379a2.379,2.379,0,1,1,4.758,0V66.2a2.382,2.382,0,0,1-2.379,2.379" transform="translate(-4.293 -2)" fill="#016dd9"/>
          </g>
        </g>
      </g>
      <path id="Path_658" data-name="Path 658" d="M11.356,61.313a5.678,5.678,0,1,1-5.678-5.678,5.678,5.678,0,0,1,5.678,5.678" transform="translate(76.356 2890.475)" fill="#407bff"/>
      <g id="Group_777" data-name="Group 777" transform="translate(145.518 2911.699)" opacity="0.6">
        <g id="Group_776" data-name="Group 776">
          <g id="Group_775" data-name="Group 775" clip-path="url(#clip-path-5)">
            <path id="Path_659" data-name="Path 659" d="M101.356,11.313a5.678,5.678,0,1,1-5.678-5.678,5.678,5.678,0,0,1,5.678,5.678" transform="translate(-90 -5.635)" fill="#fff"/>
          </g>
        </g>
      </g>
      <g id="Group_780" data-name="Group 780" transform="translate(147.055 2913.236)">
        <g id="Group_779" data-name="Group 779">
          <g id="Group_778" data-name="Group 778" clip-path="url(#clip-path-6)">
            <path id="Path_660" data-name="Path 660" d="M96.141,15.917a4.141,4.141,0,1,1,4.141-4.141,4.146,4.146,0,0,1-4.141,4.141" transform="translate(-92 -7.635)" fill="#fafafa"/>
          </g>
        </g>
      </g>
      <g id="Group_783" data-name="Group 783" transform="translate(122.463 2953.794)" opacity="0.6">
        <g id="Group_782" data-name="Group 782">
          <g id="Group_781" data-name="Group 781" clip-path="url(#clip-path-5)">
            <path id="Path_661" data-name="Path 661" d="M71.356,71.313a5.678,5.678,0,1,1-5.678-5.678,5.678,5.678,0,0,1,5.678,5.678" transform="translate(-60 -65.635)" fill="#fff"/>
          </g>
        </g>
      </g>
      <g id="Group_786" data-name="Group 786" transform="translate(124 2955.331)">
        <g id="Group_785" data-name="Group 785">
          <g id="Group_784" data-name="Group 784" clip-path="url(#clip-path-6)">
            <path id="Path_662" data-name="Path 662" d="M66.141,75.917a4.141,4.141,0,1,1,4.141-4.141,4.146,4.146,0,0,1-4.141,4.141" transform="translate(-62 -67.635)" fill="#fafafa"/>
          </g>
        </g>
      </g>
      <g id="Group_789" data-name="Group 789" transform="translate(99.411 2923.056)" opacity="0.6">
        <g id="Group_788" data-name="Group 788">
          <g id="Group_787" data-name="Group 787" clip-path="url(#clip-path-5)">
            <path id="Path_663" data-name="Path 663" d="M41.356,31.313a5.678,5.678,0,1,1-5.678-5.678,5.678,5.678,0,0,1,5.678,5.678" transform="translate(-30 -25.635)" fill="#fff"/>
          </g>
        </g>
      </g>
      <g id="Group_792" data-name="Group 792" transform="translate(100.948 2924.593)">
        <g id="Group_791" data-name="Group 791">
          <g id="Group_790" data-name="Group 790" clip-path="url(#clip-path-6)">
            <path id="Path_664" data-name="Path 664" d="M36.141,35.917a4.141,4.141,0,1,1,4.141-4.141,4.146,4.146,0,0,1-4.141,4.141" transform="translate(-32 -27.635)" fill="#fafafa"/>
          </g>
        </g>
      </g>
      <g id="Group_795" data-name="Group 795" transform="translate(76.356 2946.109)" opacity="0.6">
        <g id="Group_794" data-name="Group 794">
          <g id="Group_793" data-name="Group 793" clip-path="url(#clip-path-5)">
            <path id="Path_665" data-name="Path 665" d="M11.356,61.313a5.678,5.678,0,1,1-5.678-5.678,5.678,5.678,0,0,1,5.678,5.678" transform="translate(0 -55.635)" fill="#fff"/>
          </g>
        </g>
      </g>
      <g id="Group_798" data-name="Group 798" transform="translate(77.893 2947.646)">
        <g id="Group_797" data-name="Group 797">
          <g id="Group_796" data-name="Group 796" clip-path="url(#clip-path-6)">
            <path id="Path_666" data-name="Path 666" d="M6.141,65.917a4.141,4.141,0,1,1,4.141-4.141,4.146,4.146,0,0,1-4.141,4.141" transform="translate(-2 -57.635)" fill="#fafafa"/>
          </g>
        </g>
      </g>
    </g>
  </g>
</svg>
