<svg xmlns="http://www.w3.org/2000/svg" width="26" height="26" viewBox="0 0 26 26">
  <g id="Like" transform="translate(-463 -271)">
    <rect id="Rectangle_261" data-name="Rectangle 261" width="26" height="26" transform="translate(463 271)" fill="none"/>
    <g id="Group_182" data-name="Group 182" transform="translate(41 12.594)">
      <g id="Ellipse_1" data-name="Ellipse 1" transform="translate(422 258.406)" fill="#fff" stroke="#fff" stroke-width="1">
        <circle cx="13" cy="13" r="13" stroke="none"/>
        <circle cx="13" cy="13" r="12.5" fill="none"/>
      </g>
      <path id="Icon_awesome-heart" data-name="Icon awesome-heart" d="M14.708,3.222a4.351,4.351,0,0,0-5.937.433L8.144,4.3l-.627-.646a4.351,4.351,0,0,0-5.937-.433,4.568,4.568,0,0,0-.315,6.615l6.156,6.357a1,1,0,0,0,1.441,0L15.02,9.837a4.566,4.566,0,0,0-.312-6.615Z" transform="translate(426.855 262.031)" fill="rgba(0,0,0,0)" stroke="#191919" stroke-width="1"/>
    </g>
  </g>
</svg>
