<svg xmlns="http://www.w3.org/2000/svg" width="77" height="77" viewBox="0 0 77 77">
  <g id="Group_945" data-name="Group 945" transform="translate(-1354 -4941)">
    <rect id="Rectangle_1167" data-name="Rectangle 1167" width="77" height="77" transform="translate(1354 4941)" fill="none"/>
    <path id="Music" d="M140,104.071a11.748,11.748,0,0,0,23.5,0V75.713l28.2-2.013V85.274h-7.049a11.748,11.748,0,1,0,11.748,11.748v-34.9a7.05,7.05,0,0,0-7.552-7.033l-23.5,1.68h0A7.073,7.073,0,0,0,158.8,63.8V92.322h-7.049A11.763,11.763,0,0,0,140,104.07Zm51.692-7.049a7.049,7.049,0,1,1-7.049-7.049h7.049ZM165.68,61.461l23.5-1.68a2.35,2.35,0,0,1,2.516,2.35v6.859L163.5,71V63.8a2.35,2.35,0,0,1,2.183-2.343ZM151.748,97.022H158.8v7.049a7.049,7.049,0,1,1-7.049-7.049Z" transform="translate(1224 4893.926)" fill="#016dd9"/>
  </g>
</svg>
