<svg xmlns="http://www.w3.org/2000/svg" width="20" height="20" viewBox="0 0 20 20">
  <g id="ploygon" transform="translate(-1056 -2909)">
    <rect id="Rectangle_1137" data-name="Rectangle 1137" width="20" height="20" transform="translate(1056 2909)" fill="none"/>
    <path id="Path_9" data-name="Path 9" d="M29.994,20.723a1.2,1.2,0,0,0-1.2,0l-2.749,1.638-1.868,1.068-2.749,1.638a1.2,1.2,0,0,1-1.2,0l-2.185-1.282a1.23,1.23,0,0,1-.6-1.032V20.224a1.156,1.156,0,0,1,.6-1.032l2.15-1.246a1.2,1.2,0,0,1,1.2,0l2.15,1.246a1.23,1.23,0,0,1,.6,1.032v1.638l1.868-1.1V19.121a1.156,1.156,0,0,0-.6-1.032l-3.983-2.35a1.2,1.2,0,0,0-1.2,0l-4.053,2.35a1.156,1.156,0,0,0-.6,1.032v4.735a1.156,1.156,0,0,0,.6,1.032l4.053,2.35a1.2,1.2,0,0,0,1.2,0l2.749-1.6,1.868-1.1,2.749-1.6a1.2,1.2,0,0,1,1.2,0l2.15,1.246a1.23,1.23,0,0,1,.6,1.032v2.528a1.156,1.156,0,0,1-.6,1.032l-2.15,1.282a1.2,1.2,0,0,1-1.2,0L26.645,28.8a1.23,1.23,0,0,1-.6-1.032V26.134l-1.868,1.1v1.638a1.156,1.156,0,0,0,.6,1.032l4.053,2.35a1.2,1.2,0,0,0,1.2,0l4.053-2.35a1.23,1.23,0,0,0,.6-1.032V24.141a1.156,1.156,0,0,0-.6-1.032Z" transform="translate(1040.422 2895.422)" fill="#7b3fe4"/>
  </g>
</svg>
