<svg xmlns="http://www.w3.org/2000/svg" width="31" height="31" viewBox="0 0 31 31">
  <g id="report" transform="translate(-777 -565)">
    <g id="Group_122" data-name="Group 122" transform="translate(-825 392)">
      <g id="Rectangle_210" data-name="Rectangle 210" transform="translate(1602 173)" fill="#fff" stroke="#dcdcdc" stroke-width="1">
        <rect width="31" height="31" rx="3" stroke="none"/>
        <rect x="0.5" y="0.5" width="30" height="30" rx="2.5" fill="none"/>
      </g>
      <path id="Path_108" data-name="Path 108" d="M47.271,33.777a1.776,1.776,0,0,1,1.776,1.776l-.454,10.595a1.318,1.318,0,0,1-1.322,1.322,1.256,1.256,0,0,1-1.322-1.322l-.454-10.595A1.776,1.776,0,0,1,47.271,33.777Zm1.6,19.065a2.264,2.264,0,1,1,.668-1.608A2.27,2.27,0,0,1,48.873,52.842Z" transform="translate(1570 145.223)" fill="#828282"/>
    </g>
  </g>
</svg>
