<svg xmlns="http://www.w3.org/2000/svg" width="31" height="31" viewBox="0 0 31 31">
  <g id="share" transform="translate(-726 -565)">
    <g id="Rectangle_211" data-name="Rectangle 211" transform="translate(726 565)" fill="#fff" stroke="#dcdcdc" stroke-width="1">
      <rect width="31" height="31" rx="3" stroke="none"/>
      <rect x="0.5" y="0.5" width="30" height="30" rx="2.5" fill="none"/>
    </g>
    <path id="Icon_awesome-share-alt" data-name="Icon awesome-share-alt" d="M12.375,11.25a3.36,3.36,0,0,0-2.1.735L6.67,9.733a3.394,3.394,0,0,0,0-1.465l3.6-2.252A3.369,3.369,0,1,0,9.08,4.108L5.477,6.36a3.375,3.375,0,1,0,0,5.281l3.6,2.252a3.375,3.375,0,1,0,3.295-2.642Z" transform="translate(733.625 570.676)" fill="#828282"/>
  </g>
</svg>
