<svg xmlns="http://www.w3.org/2000/svg" width="32" height="32" viewBox="0 0 32 32">
  <g id="wallet" transform="translate(-684 -261)">
    <rect id="Rectangle_260" data-name="Rectangle 260" width="32" height="32" transform="translate(684 261)" fill="none"/>
    <g id="Layer_7" data-name="Layer 7" transform="translate(685.775 262.984)">
      <path id="Path_81" data-name="Path 81" d="M24.078,8.018a.494.494,0,0,0-.359-.147l-2.857.012V3.527a.505.505,0,0,0-.505-.505H6.552A3.125,3.125,0,0,0,3.226,6.2V18.224c0,2.587.536,4.38,1.592,5.33a2.443,2.443,0,0,0,1.614.671c.038,0,.068,0,.089,0h17.2a.505.505,0,0,0,.505-.505V8.377A.505.505,0,0,0,24.078,8.018ZM6.552,4.033h13.3V7.887c-3.626.014-8.886.033-11.617.033-3.815,0-3.991-1.651-4-1.73A2.133,2.133,0,0,1,6.552,4.033ZM23.217,23.211l-16.759,0a1.425,1.425,0,0,1-.991-.437c-.561-.524-1.229-1.738-1.229-4.552V7.916a6.426,6.426,0,0,0,4,1.015c3.858,0,12.762-.038,14.982-.047Z" transform="translate(0 0)" fill="#707070"/>
    </g>
  </g>
</svg>
